<mxfile host="app.diagrams.net" modified="2023-07-16T12:31:04.167Z" agent="Mozilla/5.0 (Windows NT 10.0; Win64; x64) AppleWebKit/537.36 (KHTML, like Gecko) Chrome/114.0.0.0 Safari/537.36" etag="yqh6UpEy9gYByfXJ1qJT" version="21.6.2" type="github">
  <diagram name="Page-1" id="tO3VQY19QrkRTFi3FYtI">
    <mxGraphModel dx="1050" dy="573" grid="1" gridSize="10" guides="1" tooltips="1" connect="1" arrows="1" fold="1" page="1" pageScale="1" pageWidth="850" pageHeight="1100" math="0" shadow="0">
      <root>
        <mxCell id="0" />
        <mxCell id="1" parent="0" />
        <mxCell id="hNq69fY_Lcnba899cUOK-2" value="" style="verticalLabelPosition=bottom;verticalAlign=top;html=1;shadow=0;dashed=0;strokeWidth=1;shape=mxgraph.android.phone2;strokeColor=#c0c0c0;fillColor=#000000;" vertex="1" parent="1">
          <mxGeometry x="170" y="252.5" width="48.72" height="95" as="geometry" />
        </mxCell>
        <mxCell id="hNq69fY_Lcnba899cUOK-4" value="" style="shape=image;html=1;verticalAlign=top;verticalLabelPosition=bottom;labelBackgroundColor=#ffffff;imageAspect=0;aspect=fixed;image=https://cdn1.iconfinder.com/data/icons/fruit-136/64/Fruit_iconfree_Filled_Outline_raspberry-healthy-organic-food-fruit_icon-128.png" vertex="1" parent="1">
          <mxGeometry x="347" y="261" width="78" height="78" as="geometry" />
        </mxCell>
        <mxCell id="hNq69fY_Lcnba899cUOK-5" value="" style="outlineConnect=0;dashed=0;verticalLabelPosition=bottom;verticalAlign=top;align=center;html=1;shape=mxgraph.aws3.hardware_board;fillColor=#5294CF;gradientColor=none;" vertex="1" parent="1">
          <mxGeometry x="560" y="249.75" width="84" height="100.5" as="geometry" />
        </mxCell>
        <mxCell id="hNq69fY_Lcnba899cUOK-6" value="" style="shape=image;html=1;verticalAlign=top;verticalLabelPosition=bottom;labelBackgroundColor=#ffffff;imageAspect=0;aspect=fixed;image=https://cdn4.iconfinder.com/data/icons/social-media-and-logos-11/32/Logo_Spotify-128.png" vertex="1" parent="1">
          <mxGeometry x="347" y="110" width="78" height="78" as="geometry" />
        </mxCell>
        <mxCell id="hNq69fY_Lcnba899cUOK-7" value="" style="endArrow=classic;html=1;rounded=0;entryX=0;entryY=0.5;entryDx=0;entryDy=0;" edge="1" parent="1" source="hNq69fY_Lcnba899cUOK-2" target="hNq69fY_Lcnba899cUOK-4">
          <mxGeometry width="50" height="50" relative="1" as="geometry">
            <mxPoint x="400" y="320" as="sourcePoint" />
            <mxPoint x="450" y="270" as="targetPoint" />
          </mxGeometry>
        </mxCell>
        <mxCell id="hNq69fY_Lcnba899cUOK-8" value="" style="endArrow=classic;html=1;rounded=0;entryX=0;entryY=0.5;entryDx=0;entryDy=0;entryPerimeter=0;exitX=1;exitY=0.5;exitDx=0;exitDy=0;" edge="1" parent="1" source="hNq69fY_Lcnba899cUOK-4" target="hNq69fY_Lcnba899cUOK-5">
          <mxGeometry width="50" height="50" relative="1" as="geometry">
            <mxPoint x="229" y="310" as="sourcePoint" />
            <mxPoint x="357" y="310" as="targetPoint" />
          </mxGeometry>
        </mxCell>
        <mxCell id="hNq69fY_Lcnba899cUOK-9" value="" style="endArrow=classic;html=1;rounded=0;entryX=0.5;entryY=1;entryDx=0;entryDy=0;entryPerimeter=0;edgeStyle=orthogonalEdgeStyle;" edge="1" parent="1" source="hNq69fY_Lcnba899cUOK-2" target="hNq69fY_Lcnba899cUOK-5">
          <mxGeometry width="50" height="50" relative="1" as="geometry">
            <mxPoint x="229" y="310" as="sourcePoint" />
            <mxPoint x="357" y="310" as="targetPoint" />
            <Array as="points">
              <mxPoint x="194" y="400" />
              <mxPoint x="602" y="400" />
            </Array>
          </mxGeometry>
        </mxCell>
        <mxCell id="hNq69fY_Lcnba899cUOK-10" value="" style="endArrow=classic;html=1;rounded=0;entryX=0.25;entryY=1;entryDx=0;entryDy=0;exitX=0.25;exitY=0;exitDx=0;exitDy=0;" edge="1" parent="1" source="hNq69fY_Lcnba899cUOK-4" target="hNq69fY_Lcnba899cUOK-6">
          <mxGeometry width="50" height="50" relative="1" as="geometry">
            <mxPoint x="435" y="310" as="sourcePoint" />
            <mxPoint x="570" y="310" as="targetPoint" />
          </mxGeometry>
        </mxCell>
        <mxCell id="hNq69fY_Lcnba899cUOK-11" value="" style="endArrow=classic;html=1;rounded=0;entryX=0.75;entryY=0;entryDx=0;entryDy=0;exitX=0.75;exitY=1;exitDx=0;exitDy=0;" edge="1" parent="1" source="hNq69fY_Lcnba899cUOK-6" target="hNq69fY_Lcnba899cUOK-4">
          <mxGeometry width="50" height="50" relative="1" as="geometry">
            <mxPoint x="377" y="271" as="sourcePoint" />
            <mxPoint x="380" y="198" as="targetPoint" />
          </mxGeometry>
        </mxCell>
        <mxCell id="hNq69fY_Lcnba899cUOK-12" value="Spotify Mode" style="text;html=1;strokeColor=none;fillColor=none;align=center;verticalAlign=middle;whiteSpace=wrap;rounded=0;" vertex="1" parent="1">
          <mxGeometry x="250" y="261" width="60" height="30" as="geometry" />
        </mxCell>
        <mxCell id="hNq69fY_Lcnba899cUOK-13" value="Normal WLED Operations" style="text;html=1;strokeColor=none;fillColor=none;align=center;verticalAlign=middle;whiteSpace=wrap;rounded=0;" vertex="1" parent="1">
          <mxGeometry x="370" y="410" width="60" height="30" as="geometry" />
        </mxCell>
        <mxCell id="hNq69fY_Lcnba899cUOK-16" value="GET&amp;nbsp;/me/player/currently-playing&lt;br&gt;" style="text;html=1;strokeColor=none;fillColor=none;align=center;verticalAlign=middle;whiteSpace=wrap;rounded=0;" vertex="1" parent="1">
          <mxGeometry x="170" y="210" width="200" height="30" as="geometry" />
        </mxCell>
        <mxCell id="hNq69fY_Lcnba899cUOK-17" value="Track Info JSON" style="text;html=1;strokeColor=none;fillColor=none;align=center;verticalAlign=middle;whiteSpace=wrap;rounded=0;" vertex="1" parent="1">
          <mxGeometry x="420" y="210" width="60" height="30" as="geometry" />
        </mxCell>
        <mxCell id="hNq69fY_Lcnba899cUOK-19" value="Send Album Cover" style="text;html=1;strokeColor=none;fillColor=none;align=center;verticalAlign=middle;whiteSpace=wrap;rounded=0;" vertex="1" parent="1">
          <mxGeometry x="460" y="261" width="80" height="30" as="geometry" />
        </mxCell>
        <mxCell id="hNq69fY_Lcnba899cUOK-20" value="&lt;div&gt;&lt;br&gt;&lt;/div&gt;&lt;div&gt;&lt;b&gt;Turning On Spotify Mode&lt;/b&gt;&lt;/div&gt;&lt;ol&gt;&lt;li&gt;Start Spotify Mode from Phone&lt;/li&gt;&lt;li&gt;RPi starts listening loop&lt;/li&gt;&lt;li&gt;Send album cover to ESP32 periodically&lt;/li&gt;&lt;/ol&gt;" style="text;html=1;strokeColor=none;fillColor=none;align=left;verticalAlign=middle;whiteSpace=wrap;rounded=0;" vertex="1" parent="1">
          <mxGeometry x="680" y="200" width="260" height="70" as="geometry" />
        </mxCell>
        <mxCell id="hNq69fY_Lcnba899cUOK-21" value="&lt;b&gt;Turning Off Spotify Mode&lt;/b&gt;&lt;br&gt;Have to stop listening loop on RPi&lt;br&gt;&lt;ol&gt;&lt;li&gt;IDFK&lt;/li&gt;&lt;/ol&gt;" style="text;html=1;strokeColor=none;fillColor=none;align=left;verticalAlign=middle;whiteSpace=wrap;rounded=0;" vertex="1" parent="1">
          <mxGeometry x="680" y="310" width="260" height="70" as="geometry" />
        </mxCell>
      </root>
    </mxGraphModel>
  </diagram>
</mxfile>
